<?xml version="1.0" standalone="no"?>
<!DOCTYPE svg PUBLIC "-//W3C//DTD SVG 1.1//EN" "http://www.w3.org/Graphics/SVG/1.1/DTD/svg11.dtd">
<svg xmlns="http://www.w3.org/2000/svg">
<metadata>Generated by Fontastic.me</metadata>
<defs>
<font id="untitled-font-19" horiz-adv-x="512">
<font-face font-family="untitled-font-19" units-per-em="512" ascent="480" descent="-32"/>
<missing-glyph horiz-adv-x="512" />

<glyph glyph-name="vector2" unicode="&#97;" d="M500 385c4 12 0 20-17 20l-56 0c-14 0-21-7-24-15 0 0-29-68-69-113-13-13-19-17-26-17-4 0-9 4-9 16l0 109c0 14-4 20-16 20l-88 0c-9 0-14-6-14-12 0-14 20-17 22-54l0-81c0-18-3-21-10-21-19 0-65 69-93 147-5 15-10 21-25 21l-56 0c-16 0-19-7-19-15 0-15 19-87 88-183 47-65 112-100 171-100 36 0 40 8 40 21l0 49c0 16 4 19 15 19 8 0 22-4 56-35 38-38 44-54 65-54l56 0c16 0 24 8 20 23-5 15-23 38-48 65-13 15-32 31-38 39-8 11-6 15 0 25 0 0 68 94 75 126z"/>
<glyph glyph-name="vector3" unicode="&#98;" d="M455 458l-432-167c-30-12-30-28-6-35l111-35 257 162c12 7 23 3 14-5l-208-187 0 0 0 0-7-115c11 0 16 5 22 11l54 53 112-83c21-11 36-6 41 19l73 347c8 30-11 44-31 35z"/>
<glyph glyph-name="vector4" unicode="&#99;" d="M372 205c-7 3-38 19-44 21-6 2-10 3-14-3-4-7-16-21-20-25-4-4-8-5-14-2-6 3-27 10-51 32-19 16-31 37-35 44-4 6-1 9 3 12 3 3 6 8 9 12 3 3 4 6 7 10 2 4 1 8-1 11-2 3-14 35-20 47-5 13-10 11-14 11-4 0-8 0-12 0-4 0-11-1-17-7-6-7-22-22-22-53 0-32 23-62 26-66 3-4 45-68 108-96 15-6 27-10 36-13 15-5 29-4 40-3 12 2 38 16 43 31 5 14 5 27 4 30-2 2-6 4-12 7z m-116-158l0 0c-38 0-75 10-108 30l-7 4-80-21 21 78-5 8c-21 34-32 73-32 112 0 117 95 211 211 211 56 0 109-22 149-62 20-19 35-42 46-68 10-26 16-53 16-81 0-116-95-211-211-211z m179 391c-23 23-51 42-82 55-31 13-64 19-97 19-140 0-254-114-254-254 0-44 12-88 34-127l-36-131 134 35c38-20 79-31 122-31l0 0c140 0 254 114 254 254 0 33-7 66-20 97-12 31-31 59-55 83z"/>
<glyph glyph-name="vector" unicode="&#100;" d="M444 68l-376 0c-12 0-24 5-33 14-9 9-14 21-14 33l0 284c1 12 6 23 15 32 9 8 20 13 32 13l376 0c12 0 24-5 33-14 9-9 14-21 14-33l0-282c0-12-5-24-14-33-9-9-21-14-33-14z m-376 285l0-238 376 0 0 238-188-125z m19 44l169-113 169 113z"/>
<glyph glyph-name="user-circle" unicode="&#101;" d="M256 469c-56 0-110-23-150-63-40-40-63-94-63-150 0-33 8-65 23-94 14-30 36-55 62-75l0-2 2 0c36-27 80-42 126-42 46 0 90 15 126 42l2 0 0 2c26 20 48 45 62 75 15 29 23 61 23 94 0 56-23 110-63 150-40 40-94 63-150 63z m-84-361c3 14 11 27 23 36 11 10 25 15 40 15l42 0c15 0 29-5 40-15 12-9 20-22 23-36-26-15-55-23-84-23-29 0-58 8-84 23z m204 28c-8 19-22 36-40 47-17 12-38 18-59 18l-42 0c-21 0-42-6-59-18-18-11-32-28-40-47-16 15-28 34-37 55-9 20-13 43-14 65 1 45 19 88 51 120 32 32 75 50 120 51 45-1 88-19 120-51 32-32 50-75 51-120-1-22-5-45-14-65-9-21-21-40-37-55z m-120 248c-11 0-22-2-33-6-10-4-20-10-28-18-8-8-14-18-18-28-5-11-7-22-6-33-1-12 1-23 6-33 4-11 10-20 18-28 8-8 18-15 28-19 11-4 22-6 33-6 11 0 22 2 33 6 10 4 20 11 28 19 8 8 14 17 18 28 5 10 7 21 6 33 1 11-1 22-6 33-4 10-10 20-18 28-8 8-18 14-28 18-11 4-22 6-33 6z m0-128c-6 0-11 1-17 3-5 2-10 5-14 9-4 4-7 9-9 14-2 5-3 11-3 17 0 5 1 11 3 16 2 6 5 10 9 14 4 4 9 8 14 10 6 2 11 3 17 2 6 1 11 0 17-2 5-2 10-6 14-10 4-4 7-8 9-14 2-5 3-11 3-16 0-6-1-12-3-17-2-5-5-10-9-14-4-4-9-7-14-9-6-2-11-3-17-3z"/>
<glyph glyph-name="group" unicode="&#102;" d="M0 475c0 14 11 25 24 25l30 0c11 0 22-4 30-11 9-6 15-16 17-26l20-79c3-13-5-26-18-30-13-3-26 5-29 18l-20 79-30 0c-13 0-24 11-24 24z m146-438c0 13 11 24 25 24l48 0c14 0 25-11 25-24 0-14-11-25-25-25l-48 0c-14 0-25 11-25 25z m195 0c0 13 11 24 25 24l48 0c14 0 25-11 25-24 0-14-11-25-25-25l-48 0c-14 0-25 11-25 25z m-286 307c-6 27 14 53 43 53l362 0c27 0 47-24 43-50l-33-215c-3-21-21-37-43-37l-280 0c-20 0-38 14-43 34z m49 5l47-205 272 0 31 205z"/>
<glyph glyph-name="vector-1" unicode="&#104;" d="M288 288l192 0c8 0 17-3 23-9 6-6 9-15 9-23 0-8-3-17-9-23-6-6-15-9-23-9l-448 0c-8 0-17 3-23 9-6 6-9 15-9 23 0 8 3 17 9 23 6 6 15 9 23 9z"/>
<glyph glyph-name="vector2-1" unicode="&#105;" d="M480 288l-192 0 0 192c0 8-3 17-9 23-6 6-15 9-23 9-8 0-17-3-23-9-6-6-9-15-9-23l0-192-192 0c-8 0-17-3-23-9-6-6-9-15-9-23 0-8 3-17 9-23 6-6 15-9 23-9l192 0 0-192c0-8 3-17 9-23 6-6 15-9 23-9 8 0 17 3 23 9 6 6 9 15 9 23l0 192 192 0c8 0 17 3 23 9 6 6 9 15 9 23 0 8-3 17-9 23-6 6-15 9-23 9z"/>
<glyph glyph-name="vector-stroke" unicode="&#106;" d="M502 449c12-11 13-28 3-41l-284-341c-5-6-13-10-21-10-8 0-15 3-21 8l-171 171c-11 11-11 29 0 40 11 11 29 11 41 0l148-149 265 318c10 12 28 14 40 4z"/>
<glyph glyph-name="search-svgrepo-com" unicode="&#107;" d="M506 37l-147 147c29 34 46 79 46 127 0 111-91 201-202 201-112 0-203-90-203-201 0-110 91-200 202-200 48 0 91 16 126 43l148-147c8-9 21-9 30 0 8 8 8 21 0 30z m-463 274c0 87 72 158 159 158 88 0 160-71 160-158 0-87-72-157-160-157-87 0-159 70-159 157z"/>
<glyph glyph-name="phone" unicode="&#108;" d="M368 0c-17 0-33 3-49 9-71 25-136 67-189 121-54 53-96 118-121 189-8 23-11 46-7 70 3 22 11 43 24 61 13 19 30 34 50 45 21 11 44 17 68 17 8 0 14-5 16-13l25-117c1-5 0-11-4-15l-43-42c40-81 106-147 187-187l43 43c3 4 9 5 14 4l117-25c8-2 13-8 13-16 0-24-6-47-17-68-11-20-26-37-45-50-18-13-39-21-61-24-7-1-14-2-21-2z m-236 479c-32-3-61-20-80-47-21-30-26-67-13-102 49-136 155-242 291-291 35-13 72-8 102 13 27 19 44 48 47 80l-95 20-45-45c-5-5-12-6-18-3-95 45-172 122-217 217-3 6-2 13 3 18l45 45z"/>
<glyph glyph-name="frame-3295" unicode="&#109;" d="M347 377l-91-91-91 91c-4 4-9 6-15 6-5 0-11-2-15-6-4-4-6-10-6-15 0-6 2-11 6-15l91-91-91-91c-4-4-6-9-6-15 0-5 2-11 6-15 4-4 10-6 15-6 6 0 11 2 15 6l91 91 91-91c4-4 9-6 15-6 5 0 11 2 15 6 4 4 6 10 6 15 0 6-2 11-6 15l-91 91 91 91c4 4 6 9 6 15 0 5-2 11-6 15-4 4-10 6-15 6-6 0-11-2-15-6z"/>
<glyph glyph-name="frame-3295-1" unicode="&#110;" d="M149 245c0-17-14-32-32-32-17 0-32 15-32 32 0 18 15 32 32 32 18 0 32-14 32-32z m150 0c0-17-15-32-32-32-18 0-32 15-32 32 0 18 14 32 32 32 17 0 32-14 32-32z m149 0c0-17-14-32-32-32-18 0-32 15-32 32 0 18 14 32 32 32 18 0 32-14 32-32z"/>
<glyph glyph-name="catalog" unicode="&#103;" d="M314 267c-42 0-76-34-76-75 0-42 34-76 76-76 42 0 76 34 76 76 0 41-34 75-76 75z m-117-75c0 64 53 116 117 116 65 0 117-52 117-116 0-65-52-117-117-117-64 0-117 52-117 117z m-168 216c0 12 9 21 20 21l386 0c11 0 20-9 20-21 0-11-9-20-20-20l-386 0c-11 0-20 9-20 20z m0-144c0 11 9 20 20 20l97 0c11 0 20-9 20-20 0-11-9-21-20-21l-97 0c-11 0-20 10-20 21z m0-145c0 12 9 21 20 21l97 0c11 0 20-9 20-21 0-11-9-20-20-20l-97 0c-11 0-20 9-20 20z m355 3c8 8 21 8 29 0l60-61c8-8 8-21 0-29-8-7-21-7-29 0l-60 61c-8 8-8 21 0 29z"/>
<glyph glyph-name="percent-svgrepo-com" unicode="&#111;" d="M373 64c-41 0-74 33-74 75 0 41 33 74 74 74 42 0 75-33 75-74 0-42-33-75-75-75z m0 43c18 0 32 14 32 32 0 17-14 32-32 32-17 0-32-15-32-32 0-18 15-32 32-32z m-234 192c-42 0-75 33-75 74 0 42 33 75 75 75 41 0 74-33 74-75 0-41-33-74-74-74z m0 42c17 0 32 15 32 32 0 18-15 32-32 32-18 0-32-14-32-32 0-17 14-32 32-32z m268 96l30-30-332-332-30 30 332 332z"/>
<glyph glyph-name="table-simple-24-regular" unicode="&#118;" d="M64 379c0 18 7 36 20 49 13 13 31 20 49 20l246 0c18 0 36-7 49-20 13-13 20-31 20-49l0-246c0-18-7-36-20-49-13-13-31-20-49-20l-246 0c-18 0-36 7-49 20-13 13-20 31-20 49z m69 37c-10 0-19-4-26-11-7-7-11-16-11-26l0-107 144 0 0 144z m107-176l-144 0 0-107c0-20 17-37 37-37l107 0z m32 0l0-144 107 0c10 0 19 4 26 11 7 7 11 16 11 26l0 107z m144 32l0 107c0 10-4 19-11 26-7 7-16 11-26 11l-107 0 0-144z"/>
<glyph glyph-name="share-alt" unicode="&#112;" d="M117 192c19 0 37 7 51 20l133-77c-1-5-2-12-2-18 0-17 5-34 16-47 11-14 26-23 43-27 17-4 35-1 50 7 16 7 28 20 35 36 7 16 8 34 4 50-5 17-15 32-29 42-14 10-31 15-49 14-17-1-33-8-46-20l-134 77c2 5 3 10 3 16l131 75c13-12 29-18 46-19 17-1 34 4 48 14 14 10 24 24 28 41 4 16 3 34-4 49-7 16-19 29-34 37-16 7-33 9-50 6-16-4-31-13-42-26-11-14-16-30-16-47 0-6 1-13 2-18l-121-70c-7 11-17 20-28 26-12 6-25 9-38 8-13 0-25-4-36-11-11-7-20-16-26-28-7-11-10-24-10-37 1-13 4-25 11-37 7-11 16-20 27-26 12-7 24-10 37-10z m256-43c7 0 13-2 18-5 5-4 9-9 12-14 2-6 3-13 2-19-2-6-5-12-9-16-5-5-10-8-16-9-7-1-13-1-19 2-6 2-11 6-14 12-4 5-6 11-6 17 0 9 4 17 10 23 6 6 14 9 22 9z m0 278c7 0 13-2 18-6 5-3 9-8 12-14 2-6 3-12 2-19-2-6-5-11-9-16-5-4-10-7-16-9-7-1-13 0-19 2-6 3-11 7-14 12-4 5-6 11-6 18 0 8 4 16 10 22 6 6 14 10 22 10z m-256-128c7 0 13-2 18-6 5-3 9-8 12-14 2-6 3-12 2-19-2-6-5-11-9-16-5-4-10-7-16-9-7-1-13 0-19 2-6 3-11 7-14 12-4 5-6 11-6 18 0 8 4 16 10 22 6 6 14 10 22 10z"/>
<glyph glyph-name="right" unicode="&#113;" d="M261 264l-70 70 30 30 100-100-100-101-30 30z"/>
<glyph glyph-name="loader-alt" unicode="&#114;" d="M256 43c116 0 213 97 213 213l-42 0c0-93-78-171-171-171-93 0-171 78-171 171 0 92 78 171 171 171l0 42c-116 0-213-97-213-213 0-116 97-213 213-213z"/>
<glyph glyph-name="eye" unicode="&#115;" d="M256 299c-24 0-43-19-43-43 0-24 19-43 43-43 24 0 43 19 43 43 0 24-19 43-43 43z m-85-43c0 47 38 85 85 85 47 0 85-38 85-85 0-47-38-85-85-85-47 0-85 38-85 85z m-27 84c-34-25-61-55-77-75l0 0c-2-3-3-6-3-9 0-3 1-6 3-9l0 0c16-20 43-50 77-75 33-25 72-44 112-44 40 0 79 19 112 44 34 25 61 55 77 75 4 6 4 12 0 18-16 20-43 50-77 75-33 25-72 44-112 44-40 0-79-19-112-44z m-26 34c38 28 85 53 138 53 53 0 100-25 138-53 38-28 67-61 84-83l0 0c17-21 17-49 0-70l0 0c-17-22-46-55-84-83-38-28-85-53-138-53-53 0-100 25-138 53-37 28-67 61-84 83-8 10-13 22-13 35 0 13 5 25 13 35 17 22 47 55 84 83z"/>
<glyph glyph-name="akar-icons-settings-horizontal" unicode="&#116;" d="M43 405c0 12 9 22 21 22l85 0c12 0 22-10 22-22 0-11-10-21-22-21l-85 0c-12 0-21 10-21 21z m170 0c0 12 10 22 22 22l213 0c12 0 21-10 21-22 0-11-9-21-21-21l-213 0c-12 0-22 10-22 21z m-170-149c0 12 9 21 21 21l256 0c12 0 21-9 21-21 0-12-9-21-21-21l-256 0c-12 0-21 9-21 21z m341 0c0 12 10 21 21 21l43 0c12 0 21-9 21-21 0-12-9-21-21-21l-43 0c-11 0-21 9-21 21z m-341-149c0 11 9 21 21 21l43 0c11 0 21-10 21-21 0-12-10-22-21-22l-43 0c-12 0-21 10-21 22z m128 0c0 11 9 21 21 21l256 0c12 0 21-10 21-21 0-12-9-22-21-22l-256 0c-12 0-21 10-21 22z m21 320c-12 0-21-10-21-22 0-11 9-21 21-21 12 0 21 10 21 21 0 12-9 22-21 22z m-64-22c0 36 29 64 64 64 35 0 64-28 64-64 0-35-29-64-64-64-35 0-64 29-64 64z m235-128c-12 0-22-9-22-21 0-12 10-21 22-21 11 0 21 9 21 21 0 12-10 21-21 21z m-64-21c0 35 28 64 64 64 35 0 64-29 64-64 0-35-29-64-64-64-36 0-64 29-64 64z m-150-128c-11 0-21-10-21-21 0-12 10-22 21-22 12 0 22 10 22 22 0 11-10 21-22 21z m-64-21c0 35 29 64 64 64 36 0 64-29 64-64 0-36-28-64-64-64-35 0-64 28-64 64z"/>
</font>
</defs>
</svg>
