<svg width="424" height="166" viewBox="0 0 424 166" fill="none" xmlns="http://www.w3.org/2000/svg">
<path d="M125.3 96.9596C129.94 96.9596 132.26 99.2796 132.26 103.92V123.6C132.26 128.24 129.94 130.56 125.3 130.56H110.9V154.56C110.9 159.2 108.58 161.52 103.94 161.52H81.38C76.74 161.52 74.42 159.2 74.42 154.56V130.56H7.46C2.82 130.56 0.5 128.24 0.5 123.6V103.92C0.5 101.68 1.7 98.8796 4.1 95.5196L72.98 7.67964C75.38 4.79963 77.78 3.35963 80.18 3.35963H103.94C108.58 3.35963 110.9 5.67963 110.9 10.3196V96.9596H125.3ZM74.42 96.9596V51.8396L39.86 96.9596H74.42Z" fill="#CFD8DC"/>
<path d="M213.442 -0.000366211C228.642 -0.000366211 242.402 4.71964 254.722 14.1596C267.202 23.5996 273.442 37.0396 273.442 54.4796V110.64C273.442 128.08 267.202 141.52 254.722 150.96C242.402 160.4 228.642 165.12 213.442 165.12C206.562 165.12 199.682 164 192.802 161.76C186.082 159.68 179.682 156.56 173.602 152.4C167.682 148.08 162.882 142.32 159.202 135.12C155.522 127.92 153.682 119.76 153.682 110.64V54.4796C153.682 45.3596 155.522 37.1996 159.202 29.9996C162.882 22.7996 167.682 17.1196 173.602 12.9596C179.682 8.63964 186.082 5.43964 192.802 3.35963C199.682 1.11963 206.562 -0.000366211 213.442 -0.000366211ZM238.402 105.36V59.7596C238.402 52.0796 236.082 45.8396 231.442 41.0396C226.802 36.0796 220.802 33.5996 213.442 33.5996C206.082 33.5996 200.082 36.0796 195.442 41.0396C190.962 45.8396 188.722 52.0796 188.722 59.7596V105.36C188.722 113.04 190.962 119.36 195.442 124.32C200.082 129.12 206.082 131.52 213.442 131.52C220.802 131.52 226.802 129.12 231.442 124.32C236.082 119.36 238.402 113.04 238.402 105.36Z" fill="#CFD8DC"/>
<path d="M416.394 96.9596C421.034 96.9596 423.354 99.2796 423.354 103.92V123.6C423.354 128.24 421.034 130.56 416.394 130.56H401.994V154.56C401.994 159.2 399.674 161.52 395.034 161.52H372.474C367.834 161.52 365.514 159.2 365.514 154.56V130.56H298.554C293.914 130.56 291.594 128.24 291.594 123.6V103.92C291.594 101.68 292.794 98.8796 295.194 95.5196L364.074 7.67964C366.474 4.79963 368.874 3.35963 371.274 3.35963H395.034C399.674 3.35963 401.994 5.67963 401.994 10.3196V96.9596H416.394ZM365.514 96.9596V51.8396L330.954 96.9596H365.514Z" fill="#CFD8DC"/>
<path fill-rule="evenodd" clip-rule="evenodd" d="M200.768 69.5197C203.023 69.5197 204.851 71.3478 204.851 73.603V74.0113C204.851 76.2665 203.023 78.0947 200.768 78.0947C198.513 78.0947 196.684 76.2665 196.684 74.0113V73.603C196.684 71.3478 198.513 69.5197 200.768 69.5197Z" fill="#CFD8DC"/>
<path fill-rule="evenodd" clip-rule="evenodd" d="M193.228 101.099C195.646 93.8464 202.145 86.0571 213.436 86.0571C224.726 86.0571 231.225 93.8464 233.643 101.099C234.356 103.239 233.2 105.551 231.06 106.264C228.921 106.977 226.608 105.821 225.895 103.682C224.229 98.6846 220.194 94.2238 213.436 94.2238C206.678 94.2238 202.642 98.6846 200.976 103.682C200.263 105.821 197.95 106.977 195.811 106.264C193.672 105.551 192.515 103.239 193.228 101.099Z" fill="#CFD8DC"/>
<path d="M226.101 69.5197C228.356 69.5197 230.184 71.3478 230.184 73.603V74.0113C230.184 76.2665 228.356 78.0947 226.101 78.0947C223.846 78.0947 222.018 76.2665 222.018 74.0113V73.603C222.018 71.3478 223.846 69.5197 226.101 69.5197Z" fill="#CFD8DC"/>
</svg>
