<svg width="22" height="26" viewBox="0 0 22 26" fill="none" xmlns="http://www.w3.org/2000/svg">
<path fill-rule="evenodd" clip-rule="evenodd" d="M1.52513 1.19181C2.1815 0.535436 3.07174 0.166687 4 0.166687H12.82C13.7345 0.166801 14.6128 0.524838 15.2666 1.16419L20.4465 6.22971C20.7798 6.5556 21.0449 6.94499 21.2258 7.37464C21.4067 7.80438 21.4999 8.26594 21.5 8.73221V22.3334C21.5 23.2616 21.1313 24.1518 20.4749 24.8082C19.8185 25.4646 18.9283 25.8334 18 25.8334H4C3.07174 25.8334 2.1815 25.4646 1.52513 24.8082C0.868749 24.1518 0.5 23.2616 0.5 22.3334V3.66669C0.5 2.73843 0.868749 1.84819 1.52513 1.19181ZM4 2.50002C3.69058 2.50002 3.39383 2.62294 3.17504 2.84173C2.95625 3.06052 2.83333 3.35727 2.83333 3.66669V22.3334C2.83333 22.6428 2.95625 22.9395 3.17504 23.1583C3.39383 23.3771 3.69058 23.5 4 23.5H18C18.3094 23.5 18.6062 23.3771 18.825 23.1583C19.0437 22.9395 19.1667 22.6428 19.1667 22.3334V8.7325C19.1666 8.57712 19.1356 8.42318 19.0753 8.27997C19.015 8.13672 18.9266 8.00697 18.8155 7.89833L13.6354 2.83252C13.4174 2.61947 13.1248 2.5001 12.82 2.50002H4ZM6.33333 14.1667C6.33333 13.5224 6.85567 13 7.5 13H14.5C15.1443 13 15.6667 13.5224 15.6667 14.1667C15.6667 14.811 15.1443 15.3334 14.5 15.3334H7.5C6.85567 15.3334 6.33333 14.811 6.33333 14.1667ZM6.33333 18.8334C6.33333 18.189 6.85567 17.6667 7.5 17.6667H11C11.6443 17.6667 12.1667 18.189 12.1667 18.8334C12.1667 19.4777 11.6443 20 11 20H7.5C6.85567 20 6.33333 19.4777 6.33333 18.8334Z" fill="#455A64"/>
<path fill-rule="evenodd" clip-rule="evenodd" d="M12.1667 6.00002V1.33335H14.5V6.00002C14.5 6.30944 14.6229 6.60619 14.8417 6.82498C15.0605 7.04377 15.3572 7.16669 15.6667 7.16669H20.3333V9.50002H15.6667C14.7384 9.50002 13.8482 9.13127 13.1918 8.47489C12.5354 7.81852 12.1667 6.92828 12.1667 6.00002Z" fill="#455A64"/>
</svg>
