<svg width="25" height="24" viewBox="0 0 25 24" fill="none" xmlns="http://www.w3.org/2000/svg">
<path fill-rule="evenodd" clip-rule="evenodd" d="M5.79294 2.20088C6.55768 1.43463 7.87523 1.35062 8.64948 2.24393L11.825 5.90928C11.8328 5.91764 11.8405 5.92617 11.848 5.93487C12.547 6.74179 12.4039 7.90645 11.708 8.60565L11.7067 8.60703L10.6929 9.62146C11.7392 11.3191 13.1674 12.7493 14.8636 13.7981L15.8795 12.7808C15.8796 12.7807 15.8794 12.7809 15.8795 12.7808C16.5756 12.0832 17.7368 11.9388 18.543 12.6309C18.543 12.6309 18.543 12.6309 18.543 12.6309L22.2491 15.8121C23.1498 16.5858 23.067 17.9094 22.2999 18.6764L19.6458 21.3352C18.6044 22.3777 17.0134 22.7171 15.6864 22.0729C9.89693 19.2669 5.22461 14.5883 2.42653 8.79522C1.78332 7.46808 2.1222 5.87756 3.16277 4.83563M3.16277 4.83563L5.79294 2.20088C5.79299 2.20083 5.79289 2.20092 5.79294 2.20088M10.414 7.16483C10.414 7.1648 10.4142 7.16523 10.4144 7.16621ZM10.4148 7.16915L7.22809 3.49091C7.22696 3.49084 7.22567 3.4908 7.22421 3.49081C7.20514 3.49087 7.16862 3.49911 7.13131 3.5365L4.501 6.17139C3.97652 6.69648 3.867 7.43268 4.12842 7.97131L4.1292 7.97291C6.74201 13.3824 11.105 17.7513 16.5111 20.3715L16.5119 20.3719C17.0491 20.6329 17.7835 20.524 18.3075 19.9994C18.3076 19.9994 18.3075 19.9995 18.3075 19.9994L20.9629 17.3395C21.0006 17.3018 21.0092 17.2645 21.0092 17.2444C21.0092 17.2425 21.0091 17.2408 21.009 17.2395L17.317 14.0703C17.3147 14.0701 17.3114 14.07 17.3068 14.0704C17.286 14.0719 17.2517 14.0825 17.2181 14.1161L15.9337 15.4023C15.726 15.6157 15.4548 15.7564 15.1604 15.8033C14.8616 15.8508 14.5553 15.799 14.2888 15.6557C14.2807 15.6513 14.2726 15.6468 14.2646 15.6423C12.0119 14.3451 10.1433 12.4741 8.84903 10.2199C8.84464 10.2122 8.84036 10.2045 8.83619 10.1968C8.69288 9.93017 8.64098 9.62391 8.68847 9.32497C8.73522 9.03067 8.87576 8.75946 9.08897 8.55162L10.3678 7.27194C10.3679 7.27179 10.3676 7.27208 10.3678 7.27194C10.4019 7.23741 10.4133 7.20156 10.4148 7.17983C10.4151 7.17504 10.415 7.17155 10.4148 7.16915ZM17.3205 14.0709C17.3205 14.071 17.3201 14.0709 17.3194 14.0706ZM17.3115 14.0656C17.3115 14.0656 17.3115 14.0656 17.3115 14.0656Z" fill="#37474F"/>
</svg>
