<svg width="92" height="91" viewBox="0 0 92 91" fill="none" xmlns="http://www.w3.org/2000/svg">
<path fill-rule="evenodd" clip-rule="evenodd" d="M46 3.79166C22.9656 3.79166 4.29163 22.4656 4.29163 45.5C4.29163 68.5344 22.9656 87.2083 46 87.2083C69.0343 87.2083 87.7083 68.5344 87.7083 45.5C87.7083 22.4656 69.0343 3.79166 46 3.79166ZM64.0786 38.4475C64.4115 38.067 64.665 37.6237 64.824 37.1438C64.9831 36.6639 65.0446 36.157 65.0048 35.653C64.9651 35.149 64.825 34.658 64.5927 34.2089C64.3604 33.7598 64.0407 33.3617 63.6523 33.0381C63.2638 32.7144 62.8146 32.4717 62.331 32.3242C61.8475 32.1767 61.3392 32.1274 60.8363 32.1792C60.3334 32.231 59.8459 32.3829 59.4025 32.6259C58.9592 32.8689 58.5689 33.1981 58.2546 33.5942L41.9505 53.1554L33.514 44.7151C32.7989 44.0244 31.8411 43.6423 30.8469 43.6509C29.8528 43.6595 28.9018 44.0583 28.1988 44.7613C27.4958 45.4643 27.097 46.4153 27.0884 47.4095C27.0797 48.4036 27.4619 49.3614 28.1526 50.0765L39.5276 61.4515C39.9001 61.8239 40.3462 62.1145 40.8373 62.3049C41.3284 62.4953 41.8538 62.5813 42.3799 62.5574C42.9061 62.5335 43.4215 62.4002 43.8934 62.1661C44.3652 61.9319 44.783 61.6021 45.1203 61.1975L64.0786 38.4475Z" fill="#7CB342"/>
</svg>
